# xmcd
#
# Track frame offsets: 
#        150
#        21414
#        45576
#        67581
#        92438
#        112889
#        129631
#        149400
#        175645
#        192438
#        215871
#        235953
#        257273
#        276707
#
# Disc length: 3975 seconds
#
# Revision: 0
# Processed by: cddbd v1.5.2PL0 Copyright (c) Steve Scherf et al.
# Submitted via: ExactAudioCopyFreeDBPlugin 1.0
#
DISCID=c90f850e
DTITLE=Various Artist - 絕對發燒-9
DYEAR=1900
DGENRE=Jazz
TTITLE0=Swallow
TTITLE1=Bless you privately
TTITLE2=The safflower rain
TTITLE3=Wish to marry Han family boy
TTITLE4=The man from original country
TTITLE5=The Wanquan river is so clear
TTITLE6=Lonely season
TTITLE7=The whisper in the wind
TTITLE8=Red wild rose
TTITLE9=The girl and the peach blossom
TTITLE10=Hate continuously
TTITLE11=The peach blossom lucky
TTITLE12=Miss you and can't sleep
TTITLE13=Journey of the summer
EXTD=
EXTT0=
EXTT1=
EXTT2=
EXTT3=
EXTT4=
EXTT5=
EXTT6=
EXTT7=
EXTT8=
EXTT9=
EXTT10=
EXTT11=
EXTT12=
EXTT13=
PLAYORDER=
